HIERARCHY
ROOT hip
{
	OFFSET 0.000000 0.000000 0.000000 
	CHANNELS 6 Xposition Yposition Zposition Xrotation Zrotation Yrotation
	JOINT abdomen
	{
		OFFSET 0.000000 3.402643 0.000000 
		CHANNELS 3 Xrotation Zrotation Yrotation
		JOINT chest
		{
			OFFSET 0.000000 8.438565 -0.680529 
			CHANNELS 3 Xrotation Zrotation Yrotation
			JOINT neck
			{
				OFFSET 0.000000 10.207942 -0.272212 
				CHANNELS 3 Xrotation Zrotation Yrotation
				JOINT head
				{
					OFFSET 0.000000 3.130431 0.000000 
					CHANNELS 3 Xrotation Zrotation Yrotation
					End Site
					{
						OFFSET 0.000000 3.130435 0.000000 
					}
				}
			}
			JOINT lCollar
			{
				OFFSET 3.470700 6.669187 -0.816635 
				CHANNELS 3 Yrotation Zrotation Xrotation
				JOINT lShldr
				{
					OFFSET 3.198488 0.000000 0.000000 
					CHANNELS 3 Zrotation Yrotation Xrotation
					JOINT lForeArm
					{
						OFFSET 10.139888 0.000000 0.000000 
						CHANNELS 3 Yrotation Zrotation Xrotation
						JOINT lHand
						{
							OFFSET 8.370511 0.000000 0.000000 
							CHANNELS 3 Zrotation Yrotation Xrotation
							End Site
							{
								OFFSET 4.083176 0.000000 0.000000 
							}
						}
					}
				}
			}
			JOINT rCollar
			{
				OFFSET -3.470700 6.669187 -0.816635 
				CHANNELS 3 Yrotation Zrotation Xrotation
				JOINT rShldr
				{
					OFFSET -3.198488 0.000000 0.000000 
					CHANNELS 3 Zrotation Yrotation Xrotation
					JOINT rForeArm
					{
						OFFSET -10.139888 0.000000 0.000000 
						CHANNELS 3 Yrotation Zrotation Xrotation
						JOINT rHand
						{
							OFFSET -8.370511 0.000000 0.000000 
							CHANNELS 3 Zrotation Yrotation Xrotation
							End Site
							{
								OFFSET -4.083176 0.000000 0.000000 
							}
						}
					}
				}
			}
		}
	}
	JOINT lThigh
	{
		OFFSET 5.308129 -1.633274 1.361059 
		CHANNELS 3 Xrotation Zrotation Yrotation
		JOINT lShin
		{
			OFFSET -2.041588 -20.007561 0.000000 
			CHANNELS 3 Xrotation Zrotation Yrotation
			JOINT lFoot
			{
				OFFSET 0.000000 -19.190928 -1.224953 
				CHANNELS 3 Xrotation Yrotation Zrotation
				End Site
				{
					OFFSET 0.000000 -2.449906 4.627600 
				}
			}
		}
	}
	JOINT rThigh
	{
		OFFSET -5.308129 -1.633274 1.361059 
		CHANNELS 3 Xrotation Zrotation Yrotation
		JOINT rShin
		{
			OFFSET 2.041588 -20.007561 0.000000 
			CHANNELS 3 Xrotation Zrotation Yrotation
			JOINT rFoot
			{
				OFFSET 0.000000 -19.190928 -1.224953 
				CHANNELS 3 Xrotation Yrotation Zrotation
				End Site
				{
					OFFSET 0.000000 -2.449906 4.627600 
				}
			}
		}
	}
}
MOTION
Frames: 20
Frame Time: 0.016667
-0.116834 44.394688 0.958245 -0.648147 -6.054300 -4.746470 -20.886801 1.875620 2.138100 19.276600 -1.903820 1.341340 17.129499 1.322140 -2.649160 12.564800 4.434560 -0.806410 2.000000 -2.000000 0.000000 89.127800 168.035004 0.801742 39.687901 -0.320057 0.087366 0.044980 -0.010549 -140.690994 -2.000000 2.000000 0.000000 -88.852203 -164.041000 -3.468010 -40.908600 0.318173 0.089534 -0.055468 -0.008735 -130.300995 19.135563 5.084325 -6.090087 -24.570423 7.479352 -1.884088 2.946970 23.847940 -0.615862 5.596307 6.205343 0.083826 3.524220 -4.190401 -0.143847 -14.647311 -7.408669 -1.872833 
-0.118035 44.395458 0.959970 -0.638338 -6.064080 -4.766920 -20.876900 1.879110 2.147400 19.315701 -1.903850 1.340040 17.090401 1.304520 -2.658300 12.554900 4.425030 -0.808610 2.000000 -2.000000 0.000000 89.127800 168.063995 0.792045 39.707401 -0.320027 0.087401 0.044975 -0.010467 -140.662003 -2.000000 2.000000 0.000000 -88.852203 -164.070999 -3.448410 -40.908600 0.318173 0.089534 -0.055474 -0.008789 -130.281006 19.196396 5.078507 -6.103596 -24.682322 7.516335 -1.885792 2.967969 23.879986 -0.628728 5.576050 6.210437 0.080862 3.545362 -4.184363 -0.124767 -14.661705 -7.402021 -1.870994 
-0.118944 44.394550 0.961296 -0.638349 -6.073840 -4.776580 -20.857700 1.872380 2.129430 19.344999 -1.913640 1.329510 17.070299 1.305700 -2.650490 12.545200 4.434820 -0.807920 2.000000 -2.000000 0.000000 89.118103 168.123001 0.743354 39.697701 -0.320042 0.087383 0.044964 -0.010303 -140.602997 -2.000000 2.000000 0.000000 -88.862000 -164.110001 -3.448320 -40.918400 0.318158 0.089551 -0.055477 -0.008816 -130.270996 19.169779 5.101657 -6.117527 -24.618759 7.489257 -1.886670 2.923177 23.909285 -0.600529 5.577439 6.221049 0.092924 3.534710 -4.193359 -0.124251 -14.637076 -7.407359 -1.871402 
-0.119850 44.393784 0.962622 -0.628540 -6.083620 -4.777510 -20.848101 1.865590 2.111300 19.364599 -1.913650 1.319090 17.050200 1.306870 -2.642460 12.535400 4.434960 -0.808675 2.000000 -2.000000 0.000000 89.098602 168.171997 0.694640 39.687901 -0.320057 0.087366 0.044954 -0.010139 -140.544998 -2.000000 2.000000 0.000000 -88.881599 -164.149002 -3.448220 -40.928200 0.318143 0.089569 -0.055483 -0.008870 -130.251999 19.197514 5.106432 -6.137013 -24.683538 7.512103 -1.884656 2.958284 23.899496 -0.619331 5.564956 6.219133 0.090375 3.545530 -4.184221 -0.124753 -14.639226 -7.399570 -1.879333 
-0.120180 44.393013 0.964070 -0.638349 -6.073840 -4.757050 -20.848101 1.865590 2.111300 19.364599 -1.923410 1.319290 17.049801 1.335540 -2.624150 12.535600 4.444610 -0.797468 2.000000 -2.000000 0.000000 89.108398 168.201004 0.665411 39.668400 -0.320087 0.087330 0.044949 -0.010058 -140.516006 -2.000000 2.000000 0.000000 -88.881599 -164.158997 -3.438430 -40.967201 0.318081 0.089639 -0.055471 -0.008762 -130.291000 19.171629 5.126323 -6.150874 -24.635406 7.467989 -1.892285 2.945993 23.910114 -0.613888 5.587509 6.225114 0.094615 3.524033 -4.190557 -0.143863 -14.671694 -7.400114 -1.881667 
-0.120509 44.392235 0.965519 -0.648158 -6.064070 -4.736600 -20.848200 1.853030 2.105630 19.354799 -1.933170 1.319820 17.049299 1.354870 -2.608690 12.535700 4.454270 -0.796026 2.000000 -2.000000 0.000000 89.108398 168.220993 0.626394 39.639099 -0.320131 0.087276 0.044944 -0.009976 -140.485992 -2.000000 2.000000 0.000000 -88.881599 -164.167999 -3.418870 -40.996498 0.318036 0.089692 -0.055458 -0.008653 -130.330002 19.169733 5.129056 -6.170715 -24.618984 7.453852 -1.887993 2.945554 23.925072 -0.598167 5.598446 6.217764 0.075445 3.524308 -4.190324 -0.143840 -14.691834 -7.382383 -1.873627 
-0.122347 44.391212 0.967353 -0.657955 -6.044530 -4.735790 -20.857901 1.852970 2.105470 19.335199 -1.933160 1.320480 17.058599 1.373930 -2.592390 12.526100 4.464060 -0.785579 2.000000 -2.000000 0.000000 89.127899 168.182007 0.704428 39.707401 -0.320027 0.087401 0.044959 -0.010221 -140.574005 -2.000000 2.000000 0.000000 -88.871803 -164.149002 -3.448220 -41.015999 0.318005 0.089727 -0.055471 -0.008762 -130.291000 19.188662 5.098471 -6.148565 -24.622406 7.476555 -1.884526 2.969228 23.898218 -0.625641 5.608896 6.197703 0.054845 3.536447 -4.192389 -0.134606 -14.709796 -7.393474 -1.870179 
-0.124184 44.390179 0.969186 -0.677583 -6.034740 -4.724080 -20.867599 1.843790 2.108790 19.315701 -1.923380 1.320930 17.058100 1.383930 -2.579800 12.516400 4.473860 -0.784901 2.000000 -2.000000 0.000000 89.147400 168.132996 0.772673 39.775799 -0.319923 0.087527 0.044973 -0.010440 -140.651993 -2.000000 2.000000 0.000000 -88.852303 -164.128998 -3.467800 -41.035599 0.317974 0.089762 -0.055483 -0.008870 -130.251999 19.197744 5.066911 -6.126287 -24.599468 7.485157 -1.885092 2.954924 23.887230 -0.614169 5.632076 6.177922 0.045375 3.523936 -4.190149 -0.134083 -14.702595 -7.382658 -1.874478 
-0.127026 44.391212 0.970042 -0.677559 -6.015210 -4.704780 -20.877399 1.843730 2.108630 19.315701 -1.913610 1.320720 17.109800 1.370910 -2.473420 12.536100 4.483250 -0.733107 2.000000 -2.000000 0.000000 89.147400 168.123001 0.792181 39.775799 -0.319923 0.087527 0.044975 -0.010467 -140.662003 -2.000000 2.000000 0.000000 -88.842499 -164.110001 -3.458080 -41.055099 0.317944 0.089798 -0.055493 -0.008952 -130.223007 19.211851 5.043183 -6.151559 -24.661518 7.518573 -1.895736 2.996130 23.861763 -0.651835 5.635069 6.177689 0.026845 3.523737 -4.190315 -0.134100 -14.696043 -7.370592 -1.878048 
-0.129867 44.392372 0.970896 -0.677547 -6.005440 -4.685360 -20.887100 1.843670 2.108480 19.315701 -1.903850 1.320510 17.161400 1.348590 -2.370200 12.546200 4.502430 -0.680629 2.000000 -2.000000 0.000000 89.157204 168.113007 0.801924 39.775799 -0.319923 0.087527 0.044975 -0.010467 -140.662003 -2.000000 2.000000 0.000000 -88.832703 -164.100006 -3.458110 -41.064899 0.317928 0.089815 -0.055499 -0.009006 -130.203003 19.159283 5.053922 -6.147970 -24.562620 7.470886 -1.881587 2.936614 23.849144 -0.613482 5.633407 6.156555 -0.006003 3.542053 -4.187165 -0.124337 -14.692679 -7.352356 -1.879422 
-0.133289 44.393654 0.971212 -0.667751 -6.024980 -4.676390 -20.906500 1.846970 2.117310 19.296200 -1.903840 1.321160 17.258301 1.347590 -2.198650 12.576000 4.530990 -0.595860 2.000000 -2.000000 0.000000 89.157204 168.093994 0.850707 39.805099 -0.319878 0.087581 0.044988 -0.010658 -140.729996 -2.000000 2.000000 0.000000 -88.774101 -164.080994 -3.516750 -41.064899 0.317928 0.089815 -0.055503 -0.009033 -130.192993 19.153772 5.078138 -6.141795 -24.579958 7.480704 -1.873610 2.953212 23.823114 -0.637867 5.635565 6.180974 -0.002187 3.524555 -4.189631 -0.134030 -14.683132 -7.328654 -1.866015 
-0.136710 44.394810 0.971531 -0.657943 -6.034760 -4.657770 -20.926201 1.855980 2.113510 19.286400 -1.903830 1.321480 17.346201 1.355540 -2.034800 12.605900 4.569200 -0.519375 2.000000 -2.000000 0.000000 89.157204 168.074005 0.889723 39.824600 -0.319848 0.087616 0.045000 -0.010849 -140.798996 -2.000000 2.000000 0.000000 -88.715500 -164.061005 -3.575390 -41.064899 0.317928 0.089815 -0.055503 -0.009033 -130.192993 19.151056 5.095755 -6.117500 -24.588242 7.488590 -1.885771 2.974762 23.835501 -0.626616 5.616271 6.199726 -0.012351 3.525057 -4.189209 -0.133987 -14.723002 -7.332140 -1.881714 
-0.139945 44.397003 0.966392 -0.638315 -6.044550 -4.620660 -20.945700 1.855850 2.113190 19.247299 -1.903800 1.322780 17.345900 1.318260 -2.046450 12.605800 4.559550 -0.520828 2.000000 -2.000000 0.000000 89.147400 168.084000 0.889746 39.795300 -0.319893 0.087563 0.045002 -0.010876 -140.807999 -2.000000 2.000000 0.000000 -88.647202 -164.052002 -3.682830 -41.064899 0.317928 0.089815 -0.055535 -0.009305 -130.095993 19.122152 5.107285 -6.054380 -24.568714 7.486382 -1.894502 3.024959 23.718018 -0.648306 5.618217 6.230431 -0.057896 3.524924 -4.189321 -0.133999 -14.715323 -7.325912 -1.877542 
-0.143180 44.399055 0.961251 -0.628494 -6.044560 -4.582620 -20.965401 1.852310 2.103730 19.208200 -1.894010 1.314080 17.354900 1.290690 -2.044620 12.605500 4.540240 -0.523733 2.000000 -2.000000 0.000000 89.127899 168.093994 0.889769 39.765999 -0.319938 0.087509 0.045002 -0.010876 -140.807999 -2.000000 2.000000 0.000000 -88.578796 -164.042007 -3.780510 -41.064899 0.317928 0.089815 -0.055564 -0.009549 -130.007996 19.055239 5.104084 -6.013243 -24.547007 7.488486 -1.875003 3.092426 23.648897 -0.697952 5.606095 6.246264 -0.096605 3.524764 -4.189452 -0.134012 -14.716575 -7.323474 -1.876196 
-0.146165 44.399704 0.957533 -0.618652 -6.025040 -4.564330 -20.984900 1.852180 2.103410 19.169201 -1.893980 1.315370 17.355499 1.299350 -2.051440 12.595800 4.550030 -0.523055 2.000000 -2.000000 0.000000 89.108299 168.084000 0.879981 39.746498 -0.319968 0.087473 0.044997 -0.010794 -140.779007 -2.000000 2.000000 0.000000 -88.383499 -163.964996 -4.210390 -41.094200 0.317883 0.089868 -0.055710 -0.010716 -129.587997 19.040319 5.098212 -5.955001 -24.545883 7.458983 -1.887726 3.123315 23.570253 -0.701039 5.576279 6.224328 -0.132172 3.543031 -4.186829 -0.134042 -14.726912 -7.320862 -1.887686 
-0.149151 44.400345 0.953816 -0.599001 -6.015300 -4.537180 -21.004400 1.842950 2.106590 19.139900 -1.884190 1.316100 17.356300 1.317330 -2.055330 12.596000 4.559690 -0.531370 2.000000 -2.000000 0.000000 89.079102 168.074005 0.870192 39.727001 -0.319997 0.087437 0.044989 -0.010685 -140.740005 -2.000000 2.000000 0.000000 -88.188202 -163.888000 -4.640270 -41.133202 0.317821 0.089938 -0.055861 -0.011855 -129.177994 18.996635 5.083912 -5.906748 -24.532454 7.469012 -1.880393 3.162407 23.497442 -0.725176 5.564349 6.210080 -0.145889 3.525980 -4.188922 -0.144411 -14.739849 -7.316865 -1.886102 
-0.154611 44.402279 0.948692 -0.589192 -6.025070 -4.489280 -21.014601 1.854260 2.081150 19.110600 -1.864640 1.306800 17.365601 1.345690 -2.036020 12.605900 4.569200 -0.519375 2.000000 -2.000000 0.000000 89.059502 168.024994 0.909141 39.775799 -0.319923 0.087527 0.044999 -0.010822 -140.789001 -2.000000 2.000000 0.000000 -88.383499 -163.934998 -4.083510 -41.064899 0.317928 0.089815 -0.055693 -0.010580 -129.636993 18.973810 5.087990 -5.776634 -24.537691 7.451864 -1.885613 3.260699 23.363802 -0.762200 5.545840 6.245761 -0.193380 3.544202 -4.186329 -0.143731 -14.743428 -7.313575 -1.873188 
-0.160069 44.404198 0.943568 -0.579383 -6.034850 -4.451140 -21.024599 1.859890 2.068340 19.091000 -1.845100 1.297170 17.385300 1.373120 -2.025570 12.616000 4.588380 -0.515688 2.000000 -2.000000 0.000000 89.039902 167.975998 0.938323 39.824600 -0.319848 0.087616 0.045008 -0.010958 -140.837997 -2.000000 2.000000 0.000000 -88.569000 -163.983002 -3.536520 -41.006302 0.318020 0.089710 -0.055532 -0.009278 -130.104996 18.927572 5.098303 -5.672750 -24.537958 7.450932 -1.885371 3.337161 23.232569 -0.794601 5.544865 6.277550 -0.229065 3.526054 -4.188859 -0.144405 -14.757621 -7.328331 -1.882849 
-0.162790 44.403954 0.942722 -0.579383 -6.034850 -4.441380 -21.024500 1.863320 2.077490 19.091000 -1.854860 1.307190 17.386101 1.400420 -2.026540 12.626000 4.607550 -0.521760 2.000000 -2.000000 0.000000 89.020401 167.936996 0.899170 39.834400 -0.319833 0.087634 0.045000 -0.010849 -140.798996 -2.000000 2.000000 0.000000 -88.510399 -163.973007 -3.604900 -41.006302 0.318020 0.089710 -0.055548 -0.009414 -130.057007 18.918135 5.101147 -5.651953 -24.520359 7.440938 -1.882192 3.299428 23.184658 -0.782850 5.537429 6.286541 -0.247803 3.525680 -4.188683 -0.134648 -14.728569 -7.325006 -1.867888 
-0.165511 44.403687 0.941876 -0.569563 -6.034860 -4.432640 -21.024500 1.863320 2.077490 19.100800 -1.854870 1.306870 17.386299 1.419060 -2.020710 12.626200 4.617210 -0.520304 2.000000 -2.000000 0.000000 88.991096 167.897995 0.860016 39.853901 -0.319804 0.087670 0.044991 -0.010712 -140.750000 -2.000000 2.000000 0.000000 -88.442001 -163.964005 -3.673280 -41.015999 0.318005 0.089727 -0.055561 -0.009522 -130.016998 18.919407 5.101090 -5.632268 -24.531206 7.438785 -1.881851 3.297403 23.153814 -0.783982 5.525340 6.284182 -0.250407 3.538090 -4.191493 -0.144255 -14.700427 -7.337358 -1.872240 
